<svg width="300pt" height="301pt" viewBox="0 0 300 301" version="1.1" xmlns="http://www.w3.org/2000/svg"><path fill="#f28d38" d=" M 120.97 24.06 C 135.53 20.97 150.58 20.46 165.37 21.90 C 182.54 23.41 198.94 29.74 213.81 38.24 C 224.46 44.13 233.83 52.10 242.22 60.86 C 256.97 75.83 267.03 94.98 272.98 115.02 C 277.83 133.58 278.00 153.14 275.03 172.03 C 272.94 192.32 270.19 212.55 269.11 232.93 C 268.74 244.88 268.58 256.92 270.52 268.75 C 253.12 266.01 235.41 266.92 217.94 268.45 C 202.97 269.84 188.03 271.61 173.09 273.22 C 156.23 275.85 138.91 275.78 122.18 272.32 C 86.67 264.13 54.99 240.24 37.93 207.96 C 31.41 195.49 26.20 182.12 24.40 168.09 C 22.11 151.14 22.59 133.72 26.48 117.03 C 30.55 101.80 37.45 87.37 46.37 74.39 C 55.23 62.40 66.01 51.82 78.16 43.17 C 91.26 34.56 105.71 27.81 120.97 24.06 Z"/><path d=" M 109.98 88.10 C 123.95 78.69 141.32 74.44 158.06 76.41 C 174.39 78.14 189.97 85.81 201.43 97.56 C 212.61 108.90 219.83 124.05 221.56 139.88 C 223.06 150.94 220.49 161.93 219.61 172.93 C 218.06 188.49 215.78 205.03 221.93 219.93 C 211.48 215.73 199.98 215.57 188.89 216.30 C 177.91 217.12 166.98 218.49 156.04 219.71 C 138.79 221.28 121.05 216.17 107.17 205.83 C 94.90 196.74 85.59 183.68 81.16 169.04 C 76.14 152.73 77.17 134.63 84.08 119.01 C 89.54 106.53 98.64 95.67 109.98 88.10 Z" fill="#ffffff"/><path fill="#f28d38" d=" M 93.95 123.96 C 103.15 102.07 126.13 86.43 150.03 87.07 C 166.26 86.66 182.40 93.75 193.56 105.45 C 200.69 112.22 205.39 121.16 208.56 130.38 C 211.83 140.64 211.35 151.64 209.76 162.15 C 208.42 176.56 205.91 191.04 207.44 205.53 C 195.97 204.19 184.44 205.68 173.03 206.85 C 162.33 207.82 151.59 210.14 140.84 208.45 C 115.38 204.88 93.77 183.49 89.73 158.14 C 88.23 146.66 88.90 134.54 93.95 123.96 Z"/><path d=" M 124.03 113.05 C 133.66 106.02 146.32 103.35 157.97 105.94 C 172.31 108.89 184.60 119.83 189.40 133.64 C 192.17 141.04 192.53 149.14 191.28 156.90 C 190.27 168.48 187.61 180.64 191.87 191.88 C 180.27 187.65 167.80 190.32 155.92 191.46 C 143.43 193.53 130.13 189.73 120.74 181.24 C 111.01 172.79 105.49 159.85 106.02 146.99 C 106.36 133.70 113.21 120.77 124.03 113.05 Z" fill="#ffffff"/><path fill="#f28d38" d=" M 117.01 149.00 C 116.10 131.75 131.64 115.38 149.04 116.05 C 166.40 115.44 181.87 131.76 180.97 148.98 C 180.43 158.89 178.44 168.71 178.62 178.66 C 169.04 178.46 159.59 180.40 150.06 181.00 C 132.67 182.21 116.61 166.29 117.01 149.00 Z"/></svg>